<svg xmlns="http://www.w3.org/2000/svg" viewBox="0 0 128 128">
  <defs>
    <linearGradient id="grad" x1="0%" y1="0%" x2="100%" y2="100%">
      <stop offset="0%" stop-color="#0d6efd" />
      <stop offset="100%" stop-color="#28a745" />
    </linearGradient>
  </defs>
  <rect width="128" height="128" rx="26" fill="url(#grad)" />
  <g fill="#ffffff" fill-opacity="0.18">
    <rect x="18" y="18" width="42" height="42" rx="12" />
    <rect x="68" y="18" width="42" height="42" rx="12" />
    <rect x="18" y="68" width="42" height="42" rx="12" />
    <rect x="68" y="68" width="42" height="42" rx="12" />
  </g>
  <g stroke="#ffffff" stroke-width="4" stroke-linecap="round" stroke-linejoin="round" fill="none">
    <rect x="30" y="36" width="6" height="14" rx="2" />
    <rect x="40" y="30" width="6" height="20" rx="2" />
    <rect x="50" y="26" width="6" height="24" rx="2" />
    <circle cx="89" cy="39" r="12" />
    <path d="M82 40 L88 46 L97 34" />
    <rect x="28" y="80" width="28" height="18" rx="6" />
    <path d="M40 98 L34 104 L46 100" />
    <circle cx="84" cy="86" r="6" />
    <circle cx="104" cy="86" r="6" />
    <path d="M78 104 C84 96 104 96 110 104" />
  </g>
</svg>
